<!-- Generator: Adobe Illustrator 25.0.1, SVG Export Plug-In  -->
<svg version="1.1" xmlns="http://www.w3.org/2000/svg" xmlns:xlink="http://www.w3.org/1999/xlink" x="0px" y="0px" width="200px"
	 height="33.56px" viewBox="0 0 200 33.56" style="overflow:visible;enable-background:new 0 0 200 33.56;" xml:space="preserve">
<style type="text/css">
	.st0{fill:#9B9B9A;}
	.st1{fill:#676767;}
	.st2{fill:#ef1b70;}
	.st3{fill:#FFFFFF;}
</style>
<defs>
</defs>
<g>
	<g>
		<path id="XMLID_30_" class="st0" d="M42.71,19.33c1.59-1.58,3.5-2.39,5.72-2.41c1.28-0.03,3.17,0.23,4.35,0.77
			c1.1,0.52,1.96,1.17,2.57,1.97V8.55h1.63v24.87l-1.98-2.16c-1.7,1.57-4.36,2.33-6.65,2.28c-2.24-0.08-4.14-0.93-5.7-2.57
			c-1.56-1.63-2.34-3.56-2.34-5.78C40.33,22.98,41.13,20.91,42.71,19.33z M44.27,29.79c1.24,1.18,2.72,1.75,4.44,1.7
			c1.67-0.03,3.75-0.66,4.91-1.89c1.16-1.24,1.74-2.69,1.74-4.37c0-1.75-0.61-3.39-1.82-4.59c-1.21-1.2-3.34-1.78-5.06-1.76
			c-1.67,0-3.1,0.62-4.29,1.85c-1.18,1.24-1.78,2.87-1.78,4.57C42.42,27.11,43.04,28.61,44.27,29.79z"/>
		<path id="XMLID_27_" class="st0" d="M60.32,11.87h-1.67V8.56h1.67V11.87z M60.32,33.54h-1.67V16.88h1.67V33.54z"/>
		<path id="XMLID_25_" class="st0" d="M63.66,33.54h-1.67V8.55h1.67V33.54z"/>
		<path id="XMLID_22_" class="st0" d="M82.09,24.86c0,2.46-0.82,4.53-2.47,6.19c-1.65,1.66-3.57,2.49-5.76,2.49
			c-2.45,0-4.48-0.83-6.1-2.48c-1.62-1.65-2.43-3.63-2.43-5.93c0-2.3,0.81-4.26,2.43-5.85c1.62-1.6,3.57-2.4,5.83-2.4
			c2.32,0,4.31,0.8,5.99,2.4C81.25,20.88,82.09,22.74,82.09,24.86z M80,24.94c0-1.62-0.67-3.06-2.01-4.32
			c-1.31-1.18-2.78-1.77-4.4-1.77c-1.73,0-3.21,0.63-4.46,1.89c-1.25,1.26-1.87,2.75-1.87,4.48c0,1.65,0.67,3.12,2.01,4.42
			c1.34,1.3,2.85,1.94,4.52,1.94c1.75,0,3.23-0.62,4.42-1.87C79.4,28.47,80,26.88,80,24.94z"/>
		<path id="XMLID_20_" class="st0" d="M98.21,30.61c-0.46,0.42-1.03,0.9-1.7,1.43c-1.42,1-2.99,1.51-4.71,1.51
			c-2.19,0-4.09-0.81-5.72-2.44c-1.62-1.63-2.43-3.55-2.43-5.77c0-2.3,0.79-4.28,2.38-5.95c1.58-1.67,3.48-2.5,5.7-2.5
			c2.57,0,4.71,0.95,6.41,2.86l-1.43,1.27c-1.03-0.79-1.78-1.31-2.24-1.55c-0.77-0.4-1.66-0.6-2.67-0.6c-1.73,0-3.18,0.61-4.37,1.84
			c-1.18,1.23-1.78,2.73-1.78,4.5c0,1.77,0.61,3.29,1.83,4.54c1.22,1.26,2.7,1.88,4.42,1.88c2.03,0,3.66-0.82,4.87-2.46L98.21,30.61
			z"/>
		<path id="XMLID_17_" class="st0" d="M117.07,24.86c0,2.46-0.82,4.53-2.47,6.19c-1.65,1.66-3.57,2.49-5.76,2.49
			c-2.45,0-4.48-0.83-6.1-2.48c-1.62-1.65-2.43-3.63-2.43-5.93c0-2.3,0.81-4.26,2.43-5.85c1.62-1.6,3.57-2.4,5.83-2.4
			c2.32,0,4.31,0.8,5.99,2.4C116.23,20.88,117.07,22.74,117.07,24.86z M114.98,24.94c0-1.62-0.67-3.06-2.01-4.32
			c-1.31-1.18-2.78-1.77-4.4-1.77c-1.73,0-3.21,0.63-4.46,1.89c-1.25,1.26-1.87,2.75-1.87,4.48c0,1.65,0.67,3.12,2.01,4.42
			c1.34,1.3,2.85,1.94,4.52,1.94c1.75,0,3.23-0.62,4.42-1.87C114.38,28.47,114.98,26.88,114.98,24.94z"/>
		<path id="XMLID_15_" class="st0" d="M130.29,33.54h-1.67V23.38c0-1.21-0.4-2.25-1.2-3.12c-0.8-0.87-1.93-1.31-3.09-1.31
			c-1.11,0-2.06,0.45-2.86,1.36c-0.8,0.91-1.2,1.93-1.2,3.07v10.16h-1.67V16.88l1.63,2.06c0,0,0.55-0.75,1.49-1.24
			c0.94-0.49,1.87-0.76,2.8-0.81c1.62-0.05,2.83,0.46,4,1.55c1.17,1.08,1.76,2.5,1.76,4.24V33.54z"/>
		<path id="XMLID_13_" class="st1" d="M140.29,8.55v1.67c0,0-1.1,0-1.67,0c-2.37,0-3.33,0.83-3.33,3.33c0,0.61,0,3.36,0,3.33h1.67
			v1.67h-1.67v14.99h-1.64V18.55h-1.69v-1.67h1.69v-3.33c0-3.39,1.64-5,4.98-5C139.41,8.55,140.29,8.55,140.29,8.55z"/>
		<path id="XMLID_11_" class="st1" d="M143.6,33.54l-1.65,0V8.55h1.65V33.54z"/>
		<path id="XMLID_8_" class="st1" d="M162.04,24.86c0,2.46-0.82,4.53-2.47,6.19c-1.65,1.66-3.57,2.49-5.76,2.49
			c-2.45,0-4.48-0.83-6.1-2.48c-1.62-1.65-2.43-3.63-2.43-5.93c0-2.3,0.81-4.26,2.43-5.85c1.62-1.6,3.57-2.4,5.83-2.4
			c2.32,0,4.31,0.8,5.99,2.4C161.2,20.88,162.04,22.74,162.04,24.86z M159.95,24.94c0-1.62-0.67-3.06-2.01-4.32
			c-1.31-1.18-2.78-1.77-4.4-1.77c-1.73,0-3.21,0.63-4.46,1.89c-1.25,1.26-1.87,2.75-1.87,4.48c0,1.65,0.67,3.12,2.01,4.42
			c1.34,1.3,2.85,1.94,4.52,1.94c1.75,0,3.23-0.62,4.42-1.87C159.35,28.47,159.95,26.88,159.95,24.94z"/>
		<path id="XMLID_6_" class="st1" d="M170.31,16.88v1.67c0,0-0.41,0-0.97,0c-1.1,0-2.16,0.61-2.86,1.49
			c-0.7,0.88-1.21,1.55-1.21,2.63v10.81c-0.45,0.1-1.12,0.08-1.63-0.08V17.64c0,0.26,0.58,0.7,1.35,1.31
			c1.64-1.29,2.52-2.07,4.5-2.07C169.91,16.88,170.31,16.88,170.31,16.88z"/>
		<path id="XMLID_3_" class="st1" d="M187.62,29.16c-0.55,1.28-1.55,2.35-3.01,3.21c-1.36,0.78-2.76,1.17-4.22,1.17
			c-2.37,0-4.37-0.82-5.98-2.46c-1.62-1.64-2.42-3.65-2.42-6.02c0-2.24,0.89-4.17,2.66-5.79c1.69-1.59,3.68-2.39,5.94-2.39
			c1.36,0,2.63,0.29,3.83,0.86c1.38,0.65,2.4,1.58,3.05,2.78l-10.64,9.58c0.13,0.41,0.64,0.75,1.53,1.03
			c0.73,0.25,1.37,0.38,1.92,0.38c1.17,0,2.31-0.3,3.4-0.91c1.09-0.61,1.88-1.41,2.35-2.42C186.38,28.39,186.92,28.72,187.62,29.16z
			 M184.54,20.57c-0.34-0.47-0.95-0.88-1.82-1.22c-0.87-0.34-1.64-0.51-2.29-0.51c-1.72,0-3.2,0.63-4.44,1.88
			c-1.24,1.26-1.86,2.75-1.86,4.47c0,1.62,0.41,2.8,1.24,3.53L184.54,20.57z"/>
		<path id="XMLID_1_" class="st1" d="M200,28.42c0,1.57-0.51,2.82-1.53,3.75c-1.02,0.93-2.25,1.39-3.69,1.39
			c-1.67,0-3.15-0.81-4.43-2.43c0.08-0.13,0.33-0.35,0.77-0.65c0.43-0.3,0.7-0.45,0.8-0.45c-0.05,0,0.24,0.31,0.88,0.92
			c0.64,0.62,1.34,0.92,2.1,0.92c0.92,0,1.67-0.35,2.26-1.04c0.59-0.7,0.86-1.53,0.8-2.5c-0.08-1.18-0.75-2.06-2-2.64
			c-1.15-0.47-2.3-0.93-3.45-1.38c-1.23-0.71-1.84-1.81-1.84-3.31c0-1.23,0.43-2.23,1.3-2.99c0.86-0.76,1.88-1.14,3.06-1.14
			c1.65,0,2.85,0.72,3.61,2.16c-0.65,0.58-1.14,0.86-1.45,0.86c0.05,0-0.1-0.2-0.47-0.61c-0.37-0.41-0.93-0.62-1.69-0.65
			c-0.55-0.05-1.05,0.16-1.49,0.65c-0.45,0.48-0.67,1-0.67,1.55c0,0.99,0.47,1.74,1.41,2.24c0.21,0.11,0.99,0.37,2.35,0.78
			c0.99,0.29,1.83,0.93,2.51,1.92C199.71,26.68,200,27.56,200,28.42z"/>
	</g>
	<g>
		<path class="st2" d="M28.65,28.65c3.04-3.04,4.91-7.23,4.91-11.87C33.56,7.51,26.05,0,16.78,0S0,7.51,0,16.78
			s7.51,16.78,16.78,16.78h14.75c0.75,0,1.12-0.9,0.59-1.43L28.65,28.65z"/>
		<g id="Flor_1_">
			<path id="Pétalo_5_1_" class="st3" d="M24.54,12.72c-0.42,1.55-1.43,2.94-2.93,3.81c-1.5,0.87-3.21,1.05-4.77,0.63l0,0
				c0.42-1.55,1.43-2.94,2.93-3.81C21.27,12.48,22.98,12.31,24.54,12.72L24.54,12.72z M23.04,16.74c1.98-1.15,3.22-3.09,3.53-5.2
				c-1.98-0.79-4.28-0.69-6.27,0.45c-1.99,1.15-3.22,3.09-3.53,5.2C18.76,17.98,21.06,17.88,23.04,16.74z"/>
			<path id="Pétalo_4_1_" class="st3" d="M22.82,23.22c-1.61,0-3.21-0.62-4.44-1.85c-1.23-1.23-1.84-2.83-1.85-4.44l0,0
				c1.61,0,3.21,0.62,4.44,1.85C22.2,20,22.82,21.61,22.82,23.22L22.82,23.22z M18.55,22.82c1.62,1.62,3.82,2.31,5.93,2.06
				c0.25-2.11-0.44-4.31-2.06-5.93c-1.62-1.62-3.82-2.31-5.93-2.06C16.24,19,16.93,21.2,18.55,22.82z"/>
			<path id="Pétalo_3_1_" class="st3" d="M10.74,23.22c0-1.61,0.62-3.21,1.85-4.44c1.23-1.23,2.83-1.84,4.44-1.85l0,0
				c0,1.61-0.62,3.21-1.85,4.44C13.95,22.6,12.34,23.21,10.74,23.22L10.74,23.22z M17.07,16.88c-2.11-0.25-4.31,0.44-5.93,2.06
				c-1.62,1.62-2.31,3.82-2.06,5.93c2.11,0.25,4.31-0.44,5.93-2.06C16.63,21.2,17.31,19,17.07,16.88z"/>
			<path id="Pétalo_2_1_" class="st3" d="M9.02,12.72c1.55-0.41,3.27-0.23,4.77,0.63c1.5,0.87,2.51,2.26,2.93,3.81l0,0
				c-1.55,0.41-3.27,0.23-4.77-0.63C10.45,15.66,9.44,14.27,9.02,12.72L9.02,12.72z M13.25,12c-1.98-1.15-4.29-1.24-6.26-0.46
				c0.31,2.1,1.54,4.05,3.53,5.2s4.29,1.24,6.26,0.46C16.47,15.09,15.24,13.15,13.25,12z"/>
			<path id="Pétalo_1_1_" class="st3" d="M16.78,8.24c1.13,1.14,1.83,2.71,1.83,4.45c0,1.73-0.7,3.31-1.83,4.45l0,0
				c-1.13-1.14-1.83-2.71-1.83-4.45C14.95,10.95,15.65,9.38,16.78,8.24L16.78,8.24z M19.52,11.54c0-2.29-1.07-4.33-2.74-5.65
				c-1.67,1.32-2.74,3.36-2.74,5.65s1.07,4.33,2.74,5.65C18.45,15.88,19.52,13.83,19.52,11.54z"/>
			<circle id="Centro_1_" class="st3" cx="16.72" cy="16.98" r="0.91"/>
		</g>
	</g>
</g>
</svg>
